RBDS002runT25_grf
version=1
nRows=12
nColumns=19
inDegrees=no
endheader
time	ground_force_r_vx	ground_force_r_vy	ground_force_r_vz	ground_force_r_px	ground_force_r_py	ground_force_r_pz	ground_force_r_mx	ground_force_r_my	ground_force_r_mz	ground_force_l_vx	ground_force_l_vy	ground_force_l_vz	ground_force_l_px	ground_force_l_py	ground_force_l_pz	ground_force_l_mx	ground_force_l_my	ground_force_l_mz
      0.00000000	      0.00000000	      0.00000000	      0.00000000	      0.00000000	      0.00000000	      0.00000000	      0.00000000	      0.00000000	      0.00000000	     33.22388243	   1621.88285643	     37.65782286	      2.12236129	      0.00000000	      0.93322044	      0.00000000	      6.71977680	     -0.00000000
      0.00100000	      0.00000000	      0.00000000	      0.00000000	      0.00000000	      0.00000000	      0.00000000	      0.00000000	      0.00000000	      0.00000000	     35.32545136	   1612.14178957	     36.77328078	      2.12124366	      0.00000000	      0.93329958	     -0.00000000	      6.85557952	     -0.00000000
      0.00200000	      0.00000000	      0.00000000	      0.00000000	      0.00000000	      0.00000000	      0.00000000	      0.00000000	      0.00000000	      0.00000000	     37.42702030	   1602.40072270	     35.88873871	      2.12012604	      0.00000000	      0.93337872	     -0.00000000	      6.99138224	      0.00000000
      0.00300000	      0.00000000	      0.00000000	      0.00000000	      0.00000000	      0.00000000	      0.00000000	      0.00000000	      0.00000000	      0.00000000	     39.52858923	   1592.65965584	     35.00419663	      2.11900841	      0.00000000	      0.93345786	     -0.00000000	      7.12718496	      0.00000000
      0.00400000	      0.00000000	      0.00000000	      0.00000000	      0.00000000	      0.00000000	      0.00000000	      0.00000000	      0.00000000	      0.00000000	     41.64228847	   1582.92544120	     34.11887656	      2.11788645	      0.00000000	      0.93353781	     -0.00000000	      7.26248833	      0.00000000
      0.00500000	      0.00000000	      0.00000000	      0.00000000	      0.00000000	      0.00000000	      0.00000000	      0.00000000	      0.00000000	      0.00000000	     43.76205286	   1573.19465269	     33.23316749	      2.11676231	      0.00000000	      0.93361817	     -0.00000000	      7.39754202	      0.00000000
      0.00600000	      0.00000000	      0.00000000	      0.00000000	      0.00000000	      0.00000000	      0.00000000	      0.00000000	      0.00000000	      0.00000000	     45.88181726	   1563.46386418	     32.34745841	      2.11563818	      0.00000000	      0.93369852	     -0.00000000	      7.53259571	      0.00000000
      0.00700000	      0.00000000	      0.00000000	      0.00000000	      0.00000000	      0.00000000	      0.00000000	      0.00000000	      0.00000000	      0.00000000	     48.00870090	   1553.73260571	     31.46205559	      2.11450763	      0.00000000	      0.93377955	     -0.00000000	      7.66617841	      0.00000000
      0.00800000	      0.00000000	      0.00000000	      0.00000000	      0.00000000	      0.00000000	      0.00000000	      0.00000000	      0.00000000	      0.00000000	     50.14982305	   1544.00040733	     30.57726527	      2.11336427	      0.00000000	      0.93386192	     -0.00000000	      7.79681912	      0.00000000
      0.00900000	      0.00000000	      0.00000000	      0.00000000	      0.00000000	      0.00000000	      0.00000000	      0.00000000	      0.00000000	      0.00000000	     52.29094519	   1534.26820894	     29.69247494	      2.11222092	      0.00000000	      0.93394430	     -0.00000000	      7.92745983	      0.00000000
      0.01000000	      0.00000000	      0.00000000	      0.00000000	      0.00000000	      0.00000000	      0.00000000	      0.00000000	      0.00000000	      0.00000000	     54.43206733	   1524.53601056	     28.80768462	      2.11107756	      0.00000000	      0.93402668	     -0.00000000	      8.05810053	      0.00000000
      0.01100000	      0.00000000	      0.00000000	      0.00000000	      0.00000000	      0.00000000	      0.00000000	      0.00000000	      0.00000000	      0.00000000	     56.59644945	   1514.78392465	     27.92599394	      2.10990196	      0.00000000	      0.93411192	     -0.00000000	      8.18091139	      0.00000000
